<svg id="Layer_1" data-name="Layer 1" xmlns="http://www.w3.org/2000/svg" viewBox="0 0 1939.62 306.21">
  <defs>
    <style>
      .cls-1 {
        fill: #f3f3f6;
      }

      .cls-1, .cls-2 {
        stroke: #ddd;
        stroke-miterlimit: 10;
      }

      .cls-2 {
        fill: none;
        stroke-width: 69px;
      }
    </style>
  </defs>
  <g>
    <path class="cls-1" d="M22.5,197V18.47H60.25V165.72h72.5V197Z" transform="translate(0.33 58.49)"/>
    <path class="cls-1" d="M293,197l-13-42.5H215L202,197H161.25l63-179.25H270.5L333.75,197Zm-22-74.25-13-41.5q-1.26-4.26-3.25-10.75t-4-13.25q-2-6.75-3.25-11.75-1.26,5-3.38,12.37t-4,14q-1.87,6.63-2.87,9.38l-12.75,41.5Z" transform="translate(0.33 58.49)"/>
    <path class="cls-1" d="M447,47.47q-21.75,0-33.25,16.25t-11.5,44.5q0,28.5,10.62,44.12T447,168a98.39,98.39,0,0,0,21.75-2.5,216,216,0,0,0,23.75-7v31.75a128,128,0,0,1-23.25,7,134.67,134.67,0,0,1-25.75,2.25q-27.75,0-45.5-11.38t-26.25-32q-8.5-20.62-8.5-48.12,0-27,9.75-47.75a75.32,75.32,0,0,1,28.37-32.5Q420,16,447,16a108.47,108.47,0,0,1,26.62,3.37,141.37,141.37,0,0,1,25.63,9.13L487,59.22A195.48,195.48,0,0,0,466.87,51,60.4,60.4,0,0,0,447,47.47Z" transform="translate(0.33 58.49)"/>
    <path class="cls-1" d="M707.5,107.47q0,27.75-9.13,48.37a69.73,69.73,0,0,1-28,32.13q-18.87,11.49-47.87,11.5T574.62,188a69.63,69.63,0,0,1-28-32.25q-9.12-20.76-9.12-48.5T546.62,59a69.13,69.13,0,0,1,28-31.88q18.87-11.37,48.13-11.37,29,0,47.75,11.37a69.2,69.2,0,0,1,27.87,32Q707.49,79.72,707.5,107.47Zm-130.25,0q0,28,10.75,44.12t34.5,16.13q24.24,0,34.75-16.13t10.5-44.12q0-28-10.5-44.13t-34.5-16.12q-24,0-34.75,16.12T577.25,107.47Z" transform="translate(0.33 58.49)"/>
    <path class="cls-1" d="M1539.74,147.47q0,23.75-17.13,37.87T1474,199.47q-28.26,0-50.5-10.75V153.47q12.75,5.49,26.37,10.12a83.81,83.81,0,0,0,27.13,4.63q14,0,19.87-5.38a17.68,17.68,0,0,0,5.88-13.62,15.89,15.89,0,0,0-4.63-11.5,50,50,0,0,0-12.37-8.88Q1478,124.72,1468,120q-6.26-3-13.5-7.13a74.65,74.65,0,0,1-13.88-10.25,49.24,49.24,0,0,1-10.87-14.87q-4.26-8.76-4.25-21,0-24,16.25-37.38T1486,16a104.85,104.85,0,0,1,26.5,3.25,186.93,186.93,0,0,1,26.5,9.25L1526.74,58a207.85,207.85,0,0,0-22-7.75,73.08,73.08,0,0,0-20-2.75q-10.76,0-16.5,5a16.38,16.38,0,0,0-5.75,13q0,9.5,8.5,15T1496.24,94a145.6,145.6,0,0,1,23.37,13.5,50.66,50.66,0,0,1,14.88,16.5Q1539.74,133.47,1539.74,147.47Z" transform="translate(0.33 58.49)"/>
    <path class="cls-1" d="M1661,197h-37.75V50h-48.5V18.47h134.75V50H1661Z" transform="translate(0.33 58.49)"/>
    <path class="cls-1" d="M1859.73,197H1757V18.47h102.75v31h-65V88.72h60.5v31h-60.5v46h65Z" transform="translate(0.33 58.49)"/>
  </g>
  <path class="cls-2" d="M34.17,0V197H180.92L247.5,6.85l-23,124.74h70.15L258,15.72l63.33,197.07,178-3.06V174s-114.06,49.53-116.51-61.14S492.58,14,515.13,56.87L620.6,29s-75.69,9-63,82.55,32.83,68.79,64.88,73.68,66-25.68,62.61-77.8S654.24-2.45,594.92,45.25l315.52,4.89,620.94-70.62,14.07,87.74-8.87,1.84s-28.43-80.72-87.75-17.74c0,0-27.21,46.17,63.6,67.88,0,0,34.85,44.94-17.12,62.06s-84.08-12.84-84.08-12.84l-11.31,4,7.95,34.25,152.25-1.84,82,1.53v-163l-73.73-9.78h158.06l12.84-54.11L1895.81-8.87l-12.22,48.62H1770.46v68h0v73.89h96" transform="translate(0.33 58.49)"/>
</svg>
